<?xml version="1.0" encoding="UTF-8"?> <svg xmlns="http://www.w3.org/2000/svg" id="Lager_1" data-name="Lager 1" viewBox="0 0 283.46 53.05"><defs><style> .cls-1 { fill: #f4f3ef; } </style></defs><path class="cls-1" d="M54.32,36.26v-1.33h.41c.49,0,.93-.05,1.32-.16.39-.11.7-.32.94-.65.23-.33.35-.82.35-1.48v-15.57c0-.64-.12-1.11-.37-1.41-.24-.31-.56-.51-.95-.6-.39-.1-.82-.14-1.29-.14h-.41v-1.33h5.82l11.38,17.57v-14.08c0-.64-.12-1.11-.37-1.41-.24-.31-.56-.51-.95-.6-.39-.1-.82-.14-1.29-.14h-.41v-1.33h7.98v1.33h-.41c-.47,0-.9.05-1.3.16-.4.11-.72.32-.95.64-.23.32-.35.82-.35,1.49v19.07h-2.26l-11.92-18.31v14.68c0,.66.12,1.15.35,1.48.23.33.55.55.95.65.4.11.84.16,1.3.16h.41v1.33h-7.98Z"></path><path class="cls-1" d="M83.55,36.26v-1.33h.73c.47,0,.89-.05,1.29-.14.39-.1.71-.3.95-.6.24-.31.37-.77.37-1.38V15.16h-3.05c-.93,0-1.58.26-1.94.78-.36.52-.58,1.13-.67,1.83l-.16,1.37h-1.65l.16-5.56h17.89l.16,5.56h-1.65l-.16-1.37c-.08-.7-.31-1.31-.67-1.83-.36-.52-1.02-.78-1.97-.78h-3.08v17.48c0,.66.12,1.15.35,1.48.23.33.55.55.95.65.4.11.84.16,1.3.16h.73v1.33h-9.88Z"></path><path class="cls-1" d="M100.56,36.26v-1.33h.41c.49,0,.93-.05,1.32-.16.39-.11.7-.32.94-.65.23-.33.35-.82.35-1.48v-15.45c0-.68-.12-1.18-.35-1.49-.23-.32-.55-.53-.94-.64-.39-.11-.83-.16-1.32-.16h-.41v-1.33h9.25v1.33h-.41c-.47,0-.9.05-1.3.16-.4.11-.72.32-.95.64-.23.32-.35.82-.35,1.49v15.45c0,.66.12,1.15.35,1.48.23.33.55.55.95.65.4.11.84.16,1.3.16h.41v1.33h-9.25Z"></path><path class="cls-1" d="M130.95,36.58c-2.46,0-4.5-.49-6.12-1.46-1.62-.97-2.83-2.34-3.62-4.08-.79-1.75-1.19-3.8-1.19-6.15s.42-4.31,1.26-6.05c.84-1.75,2.08-3.11,3.73-4.1,1.65-.99,3.7-1.48,6.13-1.48,1.57,0,2.87.15,3.91.46,1.04.31,1.82.73,2.34,1.27.52.54.78,1.15.78,1.83s-.29,1.22-.86,1.62c-.57.4-1.27.6-2.1.6,0-.66-.13-1.3-.4-1.92-.27-.62-.7-1.14-1.32-1.56-.61-.41-1.44-.62-2.48-.62-1.8,0-3.25.39-4.34,1.16-1.09.77-1.89,1.9-2.38,3.38-.5,1.48-.75,3.28-.75,5.4s.26,3.91.78,5.39c.52,1.47,1.36,2.59,2.51,3.35,1.15.76,2.7,1.14,4.62,1.14.61,0,1.21-.03,1.78-.1s1.08-.16,1.53-.29v-5.12c0-.64-.12-1.11-.37-1.41-.24-.31-.56-.51-.95-.6-.39-.1-.82-.14-1.29-.14h-.13v-1.33h8.26v1.33h-.13c-.4,0-.77.05-1.1.16-.33.11-.59.32-.79.64-.2.32-.3.82-.3,1.49v5.72c-1.06.49-2.15.85-3.27,1.1-1.12.24-2.37.37-3.75.37Z"></path><path class="cls-1" d="M161.82,36.26v-1.33h.41c.49,0,.91-.05,1.27-.16.36-.11.65-.32.86-.65.21-.33.32-.82.32-1.48v-9.92c0-.64-.11-1.11-.32-1.41-.21-.31-.5-.51-.87-.6-.37-.1-.79-.14-1.26-.14h-.1v-1.33h4.99l.41,2.57h.16c.64-1.19,1.35-1.96,2.15-2.34.79-.37,1.68-.56,2.65-.56.68,0,1.32.1,1.92.29s1.14.49,1.6.91c.47.41.83.98,1.08,1.7h.25c.64-1.19,1.38-1.96,2.24-2.34.86-.37,1.77-.56,2.75-.56,1.63,0,2.9.49,3.81,1.48.91.99,1.37,2.57,1.37,4.75v7.5c0,.66.11,1.15.32,1.48.21.33.5.55.87.65.37.11.79.16,1.26.16h.1v1.33h-5.53v-10.96c0-1.38-.25-2.45-.75-3.21-.5-.76-1.36-1.14-2.59-1.14-.87,0-1.56.22-2.08.65-.52.43-.89,1.01-1.11,1.73-.22.72-.33,1.5-.33,2.35v6.96c0,.66.11,1.15.32,1.48.21.33.5.55.87.65.37.11.79.16,1.26.16h.1v1.33h-5.53v-10.96c0-1.38-.25-2.45-.75-3.21-.5-.76-1.36-1.14-2.59-1.14-.91,0-1.64.24-2.18.72-.54.48-.93,1.11-1.16,1.89-.23.78-.35,1.63-.35,2.54v6.71c0,.61.12,1.08.37,1.38.24.31.56.51.95.6.39.1.82.14,1.29.14h.1v1.33h-8.55Z"></path><path class="cls-1" d="M192.74,36.26v-1.33h.25c.49,0,.93-.05,1.32-.16.39-.11.7-.32.94-.65.23-.33.35-.82.35-1.48v-9.92c0-.64-.12-1.11-.35-1.41-.23-.31-.54-.51-.92-.6-.38-.1-.81-.14-1.27-.14h-.16v-1.33h5.15l.41,2.57h.16c.66-1.19,1.39-1.96,2.21-2.34.82-.37,1.73-.56,2.75-.56,1.67,0,2.98.49,3.92,1.48.94.99,1.41,2.57,1.41,4.75v7.5c0,.66.1,1.15.3,1.48.2.33.48.55.84.65.36.11.77.16,1.24.16h.16v1.33h-5.53v-10.96c0-1.38-.26-2.45-.78-3.21-.52-.76-1.43-1.14-2.72-1.14-.95,0-1.71.24-2.27.72-.56.48-.96,1.11-1.21,1.89-.24.78-.37,1.63-.37,2.54v6.71c0,.61.12,1.08.35,1.38.23.31.54.51.92.6.38.1.8.14,1.27.14h.16v1.33h-8.55Z"></path><path class="cls-1" d="M219.33,36.58c-.93,0-1.77-.19-2.53-.56-.75-.37-1.34-.93-1.76-1.68-.42-.75-.64-1.7-.64-2.84,0-1.69.6-2.94,1.8-3.75,1.2-.8,3.01-1.25,5.45-1.33l2.64-.1v-1.91c0-.76-.06-1.44-.19-2.02-.13-.58-.4-1.04-.83-1.38-.42-.34-1.07-.51-1.94-.51-.81,0-1.42.15-1.84.44-.42.3-.7.7-.84,1.22-.14.52-.21,1.12-.21,1.8-.89,0-1.56-.15-2.02-.46-.46-.31-.68-.82-.68-1.54s.26-1.33.78-1.78c.52-.44,1.21-.77,2.08-.97.87-.2,1.82-.3,2.86-.3,1.95,0,3.41.41,4.37,1.24.96.83,1.45,2.25,1.45,4.26v8.23c0,.59.06,1.05.19,1.38.13.33.34.56.64.7.3.14.68.21,1.14.21h.1v1.33h-4.29l-.51-2.73h-.25c-.44.59-.88,1.12-1.3,1.57-.42.46-.92.82-1.48,1.08-.56.26-1.29.4-2.18.4ZM220.06,34.61c.87,0,1.62-.18,2.24-.54.62-.36,1.11-.87,1.46-1.54.35-.67.52-1.45.52-2.34v-2.57l-2.03.1c-1.21.04-2.16.22-2.84.54-.69.32-1.18.76-1.48,1.32-.3.56-.44,1.26-.44,2.08,0,.66.1,1.2.29,1.64.19.43.48.76.86.99s.86.33,1.43.33Z"></path><path class="cls-1" d="M237.52,36.56c-1.06,0-1.98-.13-2.76-.38-.78-.25-1.39-.63-1.83-1.13-.43-.5-.65-1.12-.65-1.86,0-.57.12-1.02.35-1.33.23-.32.5-.54.81-.67.31-.13.59-.19.84-.19,0,1.1.25,2.05.75,2.84.5.79,1.39,1.19,2.69,1.19,1.12,0,1.99-.27,2.59-.81.6-.54.91-1.23.91-2.08,0-.53-.11-.96-.33-1.3-.22-.34-.61-.67-1.18-1-.56-.33-1.36-.72-2.4-1.16-1.08-.49-1.98-.96-2.69-1.41-.71-.46-1.24-.99-1.59-1.59-.35-.6-.52-1.36-.52-2.27,0-1.44.55-2.55,1.64-3.32,1.09-.77,2.54-1.16,4.34-1.16,1.02,0,1.87.13,2.56.4.69.27,1.21.62,1.56,1.06.35.45.52.93.52,1.46,0,.57-.2,1.03-.59,1.38-.39.35-.96.52-1.7.52,0-1.06-.22-1.89-.67-2.48-.44-.59-1.13-.89-2.07-.89-1.08,0-1.85.24-2.32.72-.47.48-.7,1.09-.7,1.83,0,.81.3,1.43.91,1.86.6.43,1.62.94,3.04,1.51,1.12.47,2.03.93,2.73,1.4.7.47,1.21,1.01,1.54,1.62.33.61.49,1.37.49,2.26,0,1.65-.57,2.9-1.72,3.73-1.14.84-2.66,1.26-4.54,1.26Z"></path><path class="cls-1" d="M246.67,36.26v-1.33h.41c.47,0,.89-.05,1.29-.14.39-.1.71-.3.95-.6.24-.31.37-.77.37-1.38v-10.07c0-.64-.12-1.11-.37-1.41-.24-.31-.56-.51-.95-.6-.39-.1-.82-.14-1.29-.14h-.1v-1.33h5.69v13.41c0,.66.12,1.15.35,1.48.23.33.55.55.95.65.4.11.84.16,1.3.16h.41v1.33h-9.03ZM251.06,16.05c-.51,0-.94-.15-1.29-.44-.35-.3-.52-.8-.52-1.53s.17-1.26.52-1.54.78-.43,1.29-.43.91.14,1.27.43c.36.29.54.8.54,1.54s-.18,1.23-.54,1.53c-.36.3-.78.44-1.27.44Z"></path><path class="cls-1" d="M265.1,36.59c-2.31,0-4.12-.76-5.42-2.29-1.3-1.53-1.95-3.67-1.95-6.42,0-2.97.61-5.2,1.84-6.71,1.23-1.5,2.97-2.26,5.21-2.26,2.05,0,3.67.64,4.85,1.91,1.18,1.27,1.76,3.17,1.76,5.69v1.46h-10.58c.04,2.31.46,3.99,1.26,5.04.79,1.05,1.95,1.57,3.48,1.57,1.1,0,2.04-.23,2.81-.68.77-.46,1.35-.97,1.73-1.54.15.06.29.19.41.38.13.19.19.42.19.7,0,.42-.2.88-.6,1.37-.4.49-1.02.91-1.84,1.26s-1.88.52-3.15.52ZM268.18,26.26c0-1.69-.26-3.06-.78-4.08-.52-1.03-1.41-1.54-2.69-1.54-1.17,0-2.07.48-2.72,1.45-.65.96-1.02,2.36-1.13,4.18h7.31Z"></path><path class="cls-1" d="M280.64,36.59c-1.61,0-2.78-.37-3.51-1.1-.73-.73-1.1-2.01-1.1-3.83v-10.61h-2.42v-1.27c.38,0,.8-.08,1.27-.24.47-.16.87-.42,1.21-.78.36-.38.66-.85.89-1.4.23-.55.42-1.23.57-2.03h1.46v3.91h4.16v1.81h-4.16v10.71c0,1.08.22,1.88.67,2.38.44.51,1.03.76,1.75.76.38,0,.73-.02,1.05-.06.32-.04.65-.1.99-.16v1.4c-.28.13-.69.24-1.24.35-.55.11-1.08.16-1.59.16Z"></path><g><path class="cls-1" d="M38.94,1.81v33.16c0,12.65-18.56,16.23-18.56,16.23,0,0-18.56-3.58-18.56-16.23V1.81h37.13M40.74,0H0v34.97c0,3.32,1.11,6.35,3.31,9.02,1.69,2.06,4.02,3.88,6.93,5.43,4.83,2.58,9.59,3.51,9.79,3.55l.34.07.34-.07c.2-.04,4.96-.98,9.79-3.55,2.9-1.55,5.24-3.38,6.93-5.43,2.2-2.67,3.31-5.71,3.31-9.02V0h0Z"></path><g><path class="cls-1" d="M31.64,20.62v12.68c0,.51.09.88.26,1.11.18.24.4.39.68.46.28.07.58.1.92.1h.6v1.28h-4.27l-7.67-6.03-1.97-1.54-7.79-6.12-.05-.04c-.15-.11-.33-.17-.53-.17-.45,0-.82.33-.88.76,0,.03,0,.06,0,.09,0,.01,0,.03,0,.04s0,.03,0,.04v9.91c0,.52.08.91.24,1.17s.38.42.65.5c.28.08.59.12.94.12h.63v1.28h-6.73v-1.28h.52c.37,0,.7-.04,1-.12.3-.08.53-.24.69-.5s.25-.64.25-1.17v-12.68c0-.51-.09-.88-.26-1.11-.18-.24-.4-.39-.68-.46-.28-.07-.58-.1-.92-.1h-.6v-1.28h5.35l.06.04,6.51,5.12,3.56,2.8h0s6.2,4.88,6.2,4.88l.07.06c.14.1.32.16.51.16.44,0,.81-.32.88-.75,0-.04.01-.08.01-.12,0,0,0-.01,0-.02,0,0,0-.01,0-.02v-9.09c0-.52-.08-.91-.24-1.17-.16-.25-.38-.42-.65-.5-.28-.08-.59-.12-.94-.12h-.62v-1.28h6.73v1.28h-.52c-.37,0-.7.04-1,.12s-.53.24-.69.5c-.17.25-.25.64-.25,1.17Z"></path><path class="cls-1" d="M29.83,29.72s0,.01,0,.02v-.04s0,.01,0,.02Z"></path><path class="cls-1" d="M10.94,23.2v.09s0-.03,0-.04,0-.03,0-.04Z"></path><path class="cls-1" d="M23.03,38.81c-.27-.1-.48-.27-.64-.51-.16-.24-.24-.58-.24-1.02v-3.62l-3.56-2.8v6.44c0,.44-.08.78-.25,1.02-.17.25-.38.41-.64.5-.26.09-.55.13-.86.13h-.71v1.28h8.52v-1.28h-.73c-.31,0-.61-.05-.88-.14Z"></path><path class="cls-1" d="M22.16,22.09v-5.52c0-.47.08-.82.24-1.06s.37-.4.63-.5c.26-.1.56-.14.89-.14h.73v-1.28h-8.52v1.28h.71c.31,0,.6.04.86.13.26.09.48.25.64.5.17.24.25.6.25,1.07v2.72l3.56,2.8Z"></path><path class="cls-1" d="M11.11,12.85c.07-.58.25-1.05.55-1.41.3-.37.83-.55,1.6-.55h14.24c.79,0,1.33.18,1.62.55.3.37.48.84.55,1.41l.16,2.02h1.81l-.13-5.8H9.27l-.13,5.8h1.78l.18-2.02Z"></path></g></g><path class="cls-1" d="M153.43,19.23v1.33h.1c.7,0,1.22.12,1.57.37.35.24.52.64.52,1.19,0,.17-.02.38-.06.62-.04.24-.12.49-.22.75l-2.13,6.2c-.21.64-.44,1.28-.68,1.94-.24.66-.44,1.29-.59,1.91-.06-.36-.18-.81-.35-1.33-.17-.53-.36-1.09-.56-1.67-.2-.58-.41-1.12-.62-1.6l-2.32-5.66c-.08-.23-.15-.44-.19-.64-.04-.19-.06-.37-.06-.54,0-.53.16-.92.48-1.16.32-.24.79-.37,1.43-.37h.1v-1.33h-7.63v1.33h.1c.42,0,.76.05,1.02.14.25.1.48.27.67.51.19.24.38.59.57,1.03l5.51,13.9c-.09.18-.18.36-.28.54-.63,1.15-1.69,2.1-2.86,2.67-.2.1-.41.18-.62.26-.85.32-1.87.48-3.05.48v1.49h.31c1.52,0,2.79-.11,3.81-.32,1.02-.21,1.86-.59,2.54-1.13.68-.54,1.4-1.22,1.96-2.19.24-.42.49-.86.69-1.31s.37-.94.54-1.41c.21-.59.43-1.18.64-1.77l.83-2.3.91-2.51c.29-.79.57-1.59.86-2.38l.7-1.92.41-1.13c.02-.06.04-.11.06-.17.25-.68.48-1.2.68-1.56.2-.36.44-.6.71-.73.28-.13.61-.19,1.02-.19h.1v-1.33h-6.61Z"></path></svg> 